HIERARCHY
ROOT Hips
{
    OFFSET 0.000000 0.000000 0.000000
    CHANNELS 6 Xposition Yposition Zposition Zrotation Xrotation Yrotation
    JOINT Spine
    {
        OFFSET -0.000000 0.083210 0.000000
        CHANNELS 3 Zrotation Xrotation Yrotation
        JOINT Spine1
        {
            OFFSET -0.000000 0.256334 0.000000
            CHANNELS 3 Zrotation Xrotation Yrotation
            JOINT Neck
            {
                OFFSET -0.000000 0.275576 0.002912
                CHANNELS 3 Zrotation Xrotation Yrotation
                JOINT Head
                {
                    OFFSET -0.000000 0.157287 0.020295
                    CHANNELS 3 Zrotation Xrotation Yrotation
                    End Site
                    {
                        OFFSET -0.000000 0.202951 0.000000
                    }
                }
            }
            JOINT LeftShoulder
            {
                OFFSET 0.041044 0.235234 -0.000041
                CHANNELS 3 Zrotation Xrotation Yrotation
                JOINT LeftArm
                {
                    OFFSET 0.117964 0.000000 0.000000
                    CHANNELS 3 Zrotation Xrotation Yrotation
                    JOINT LeftForeArm
                    {
                        OFFSET 0.291248 0.000000 0.000000
                        CHANNELS 3 Zrotation Xrotation Yrotation
                        JOINT LeftHand
                        {
                            OFFSET 0.245673 0.000000 0.000000
                            CHANNELS 3 Zrotation Xrotation Yrotation
                            End Site
                            {
                                OFFSET 0.152213 0.000000 0.000000
                            }
                        }
                    }
                }
            }
            JOINT RightShoulder
            {
                OFFSET -0.040052 0.235234 -0.000041
                CHANNELS 3 Zrotation Xrotation Yrotation
                JOINT RightArm
                {
                    OFFSET -0.117964 0.000000 0.000000
                    CHANNELS 3 Zrotation Xrotation Yrotation
                    JOINT RightForeArm
                    {
                        OFFSET -0.291248 0.000000 0.000000
                        CHANNELS 3 Zrotation Xrotation Yrotation
                        JOINT RightHand
                        {
                            OFFSET -0.245673 0.000000 0.000000
                            CHANNELS 3 Zrotation Xrotation Yrotation
                            End Site
                            {
                                OFFSET -0.152213 0.000000 0.000000
                            }
                        }
                    }
                }
            }
        }
    }
    JOINT LeftUpLeg
    {
        OFFSET 0.101475 0.000000 0.000000
        CHANNELS 3 Zrotation Xrotation Yrotation
        JOINT LeftLeg
        {
            OFFSET -0.000000 -0.446535 0.000000
            CHANNELS 3 Zrotation Xrotation Yrotation
            JOINT LeftFoot
            {
                OFFSET -0.000000 -0.400037 0.000000
                CHANNELS 3 Zrotation Xrotation Yrotation
                JOINT LeftToeBase
                {
                    OFFSET -0.000000 -0.065959 0.152213
                    CHANNELS 3 Zrotation Xrotation Yrotation
                    End Site
                    {
                        OFFSET -0.000000 0.000000 0.040590
                    }
                }
            }
        }
    }
    JOINT RightUpLeg
    {
        OFFSET -0.101475 0.000000 0.000000
        CHANNELS 3 Zrotation Xrotation Yrotation
        JOINT RightLeg
        {
            OFFSET -0.000000 -0.446535 0.000000
            CHANNELS 3 Zrotation Xrotation Yrotation
            JOINT RightFoot
            {
                OFFSET -0.000000 -0.400037 0.000000
                CHANNELS 3 Zrotation Xrotation Yrotation
                JOINT RightToeBase
                {
                    OFFSET -0.000000 -0.065959 0.152213
                    CHANNELS 3 Zrotation Xrotation Yrotation
                    End Site
                    {
                        OFFSET -0.000000 0.000000 0.040590
                    }
                }
            }
        }
    }
}
MOTION
Frames:    8
Frame Time:    0.008333
-1.623422    0.947780    -0.724837    2.051224    -1.194113    -0.186394    -1.894966    -1.637460    -0.141735    -0.714503    1.021731    -0.032215    -0.509060    3.554108    4.201082    -1.755095    1.895765    4.511079    16.515928    -4.369298    -0.793347    -22.164526    -0.441873    6.191778    -0.018150    3.776496    1.966016    3.125532    3.803680    0.986143    -15.503593    -4.350986    4.027655    23.995493    2.282437    -1.469538    -1.255795    1.699123    0.151542    10.546454    1.093337    -6.576555    2.005769    6.929939    2.641683    -0.204059    0.566021    3.421774    -3.910061    -4.293208    5.414521    0.092869    2.157210    -0.888524    -5.414415    4.386175    5.778614    2.503622    7.792697    2.767988    1.787104    -10.433383    -16.299002    -0.026340    -1.649037    -0.658626    
-1.623384    0.947753    -0.724714    2.048415    -1.191149    -0.193209    -1.889609    -1.643536    -0.138439    -0.718608    1.035179    -0.032139    -0.499141    3.560042    4.198668    -1.751338    1.888499    4.509539    16.513914    -4.364522    -0.795316    -22.166771    -0.418994    6.178008    -0.013143    3.769354    1.980823    3.157290    3.795983    0.960433    -15.495025    -4.350750    4.023376    23.987843    2.302506    -1.470993    -1.253762    1.688359    0.148625    10.554627    1.084423    -6.550930    2.004859    6.935783    2.646330    -0.202016    0.567743    3.421552    -3.911149    -4.302030    5.418871    0.093802    2.162492    -0.897059    -5.415722    4.387849    5.769595    2.504489    7.797261    2.784561    1.786943    -10.439655    -16.300983    -0.026234    -1.648324    -0.656084    
-1.623352    0.947724    -0.724587    2.043794    -1.190858    -0.198396    -1.884336    -1.647650    -0.141092    -0.719014    1.045796    -0.031919    -0.494326    3.573671    4.198006    -1.746118    1.873583    4.508609    16.506908    -4.360458    -0.801014    -22.166906    -0.379780    6.170676    -0.009446    3.756238    1.994904    3.203732    3.782778    0.945331    -15.494411    -4.349902    4.025582    23.992279    2.322708    -1.471437    -1.230231    1.643478    0.146140    10.368167    1.052106    -6.530162    2.008660    6.946727    2.652454    -0.206024    0.563859    3.420912    -3.907296    -4.306233    5.418896    0.093865    2.164219    -0.897532    -5.413276    4.395173    5.758485    2.501981    7.796889    2.802914    1.790984    -10.444697    -16.305267    -0.026121    -1.649169    -0.653128    
-1.623312    0.947701    -0.724462    2.043139    -1.188031    -0.206375    -1.877062    -1.655600    -0.141129    -0.727302    1.059397    -0.031572    -0.494589    3.576575    4.202218    -1.730367    1.869986    4.510565    16.507406    -4.358081    -0.804378    -22.170895    -0.349156    6.162805    -0.006117    3.747863    2.004555    3.209360    3.774240    0.939657    -15.487045    -4.346019    4.016517    23.987017    2.328709    -1.459961    -1.233160    1.645731    0.154664    10.374277    1.053705    -6.534701    2.005947    6.956402    2.652961    -0.206443    0.557324    3.427924    -3.909223    -4.310296    5.419169    0.094135    2.157557    -0.900612    -5.417205    4.399182    5.754417    2.502917    7.796701    2.788412    1.800324    -10.447706    -16.277431    -0.026236    -1.653043    -0.655443    
-1.623287    0.947683    -0.724339    2.040630    -1.185627    -0.210677    -1.872135    -1.661204    -0.145058    -0.732206    1.068241    -0.033345    -0.488543    3.582942    4.205813    -1.730369    1.868043    4.515233    16.513344    -4.351540    -0.806924    -22.178549    -0.331821    6.154233    -0.008310    3.741369    2.016026    3.229220    3.767647    0.929428    -15.484385    -4.347645    4.015875    23.985786    2.243851    -1.452593    -1.223417    1.681433    0.145860    10.290597    1.096522    -6.508219    2.004535    6.965611    2.660505    -0.204045    0.551430    3.423671    -3.902680    -4.314940    5.422359    0.094602    2.161828    -0.904761    -5.417469    4.405358    5.742545    2.501736    7.793541    2.805216    1.801249    -10.447439    -16.278307    -0.026000    -1.658627    -0.648759    
-1.623269    0.947666    -0.724218    2.037745    -1.179460    -0.217752    -1.869995    -1.671736    -0.147725    -0.728299    1.077715    -0.033573    -0.493085    3.594441    4.208119    -1.734583    1.858991    4.517303    16.511438    -4.355925    -0.818837    -22.179787    -0.321305    6.163903    -0.012681    3.752788    2.012841    3.248517    3.777519    0.866696    -15.561998    -4.471939    3.996376    24.097195    2.340335    -1.473146    -1.245328    1.689107    0.134013    10.262652    1.106892    -6.495114    2.004202    6.971680    2.666060    -0.201552    0.544846    3.422108    -3.905614    -4.319701    5.426998    0.094043    2.163109    -0.899315    -5.417077    4.407628    5.749830    2.504315    7.789385    2.804278    1.799214    -10.453790    -16.278292    -0.026008    -1.655782    -0.649377    
-1.623246    0.947654    -0.724100    2.037429    -1.171913    -0.223500    -1.869111    -1.683192    -0.152830    -0.727894    1.084904    -0.035227    -0.499059    3.601248    4.212703    -1.734009    1.864997    4.521019    16.514500    -4.354779    -0.818185    -22.177620    -0.346975    6.162869    -0.023096    3.733714    1.984487    3.076026    3.757612    0.877213    -15.561956    -4.474030    3.995967    24.104620    2.376570    -1.458971    -1.252040    1.653641    0.122963    10.196888    1.076062    -6.483913    2.002923    6.975879    2.663954    -0.203123    0.539809    3.422863    -3.902355    -4.329032    5.431344    0.094548    2.168226    -0.903766    -5.418739    4.406529    5.746234    2.503618    7.790014    2.810338    1.799537    -10.458099    -16.276297    -0.026009    -1.653247    -0.649759    
-1.623233    0.947648    -0.723986    2.035589    -1.164438    -0.231302    -1.871195    -1.692283    -0.155372    -0.719714    1.088331    -0.035974    -0.507287    3.609375    4.216036    -1.737897    1.867916    4.523674    16.514189    -4.348375    -0.813642    -22.180702    -0.375398    6.154765    -0.044174    3.750982    1.973971    3.303593    3.775462    0.824084    -15.563221    -4.492492    3.994558    24.110123    2.431465    -1.450796    -1.263542    1.624849    0.111179    10.169099    1.050278    -6.466538    2.001945    6.981169    2.655775    -0.201536    0.531338    3.449724    -3.909375    -4.332868    5.420421    0.093894    2.166899    -0.897617    -5.417194    4.404655    5.748968    2.500886    7.791286    2.802081    1.804561    -10.464351    -16.264217    -0.025943    -1.659205    -0.647276    
